<?xml version="1.0" encoding="UTF-8" standalone="no"?><!DOCTYPE svg PUBLIC "-//W3C//DTD SVG 1.1//EN" "http://www.w3.org/Graphics/SVG/1.1/DTD/svg11.dtd"><svg width="100%" height="100%" viewBox="0 0 144 144" version="1.1" xmlns="http://www.w3.org/2000/svg" xmlns:xlink="http://www.w3.org/1999/xlink" xml:space="preserve" xmlns:serif="http://www.serif.com/" style="fill-rule:evenodd;clip-rule:evenodd;stroke-linecap:round;stroke-linejoin:round;stroke-miterlimit:1.5;"><path d="M49.507,8.126c31.938,-11.247 67.947,8.243 80.361,43.495c12.415,35.253 -3.436,73.005 -35.375,84.253c-31.938,11.247 -67.947,-8.243 -80.361,-43.495c-12.415,-35.253 3.436,-73.005 35.375,-84.253Z" style="fill:#4f6332;"/><path d="M53.131,18.418c26.792,-9.435 57,6.914 67.414,36.487c10.414,29.573 -2.883,61.242 -29.676,70.677c-26.792,9.435 -57,-6.914 -67.414,-36.487c-10.414,-29.573 2.883,-61.242 29.676,-70.677Z" style="fill:#94a774;"/><path d="M92.266,40.214l0,0l-52.616,37.839l0,0l52.616,-37.839Z" style="fill:#bd2727;fill-opacity:0;stroke:#d3d85f;stroke-width:8px;"/><path d="M108.747,68.572l0,0l-53.705,38.622l0,0l53.705,-38.622Z" style="fill:#bd2727;fill-opacity:0;stroke:#d3d85f;stroke-width:8px;"/><path d="M42.133,56.057l0,0l43.33,59.567l0,0l-43.33,-59.567Z" style="fill:#bd2727;fill-opacity:0;stroke:#d3d85f;stroke-width:8px;"/><path d="M63.54,31.91l0,0l42.717,58.723l0,0l-42.717,-58.723Z" style="fill:#bd2727;fill-opacity:0;stroke:#d3d85f;stroke-width:8px;"/></svg>